<svg width="800" height="500" viewBox="0 0 800 500" fill="none" xmlns="http://www.w3.org/2000/svg">
  <rect width="800" height="500" rx="24" fill="#0F172A"/>
  
  <!-- Chat Bubble User -->
  <rect x="400" y="50" width="350" height="80" rx="20" fill="#6366F1"/>
  <text x="420" y="85" font-family="sans-serif" font-size="16" fill="white">Generate 10 flashcards for Organic Chemistry</text>
  
  <!-- AI Response -->
  <rect x="50" y="150" width="400" height="250" rx="20" fill="#1E293B" stroke="#8B5CF6" stroke-width="2"/>
  <circle cx="90" cy="190" r="20" fill="#8B5CF6"/>
  <path d="M85 185 L95 195 M95 185 L85 195" stroke="white" stroke-width="2"/>
  
  <rect x="120" y="185" width="100" height="10" rx="5" fill="#8B5CF6" fill-opacity="0.5"/>
  
  <rect x="80" y="230" width="300" height="8" rx="4" fill="#334155"/>
  <rect x="80" y="250" width="300" height="8" rx="4" fill="#334155"/>
  <rect x="80" y="270" width="200" height="8" rx="4" fill="#334155"/>
  
  <rect x="80" y="310" width="120" height="30" rx="15" fill="#8B5CF6"/>
  <text x="140" y="330" font-family="sans-serif" font-size="12" font-weight="bold" fill="white" text-anchor="middle">Add to Deck</text>
  
  <!-- Input Bar -->
  <rect x="50" y="430" width="700" height="50" rx="25" fill="#1E293B" stroke="#334155"/>
  <text x="80" y="460" font-family="sans-serif" font-size="16" fill="#94A3B8">Ask MKR Ai anything...</text>
  <circle cx="715" cy="455" r="15" fill="#6366F1"/>
</svg>
